Soccer Kick
version=1
nRows=8
nColumns=41
inDegrees=yes
endheader
time	/jointset/ground_pelvis/turn/value	/jointset/ground_pelvis/turn/speed	/jointset/hip_r/hip_flexion_r/value	/jointset/hip_r/hip_flexion_r/speed	/jointset/knee_r/knee_angle_r/value	/jointset/knee_r/knee_angle_r/speed	/jointset/tib_pat_r/knee_angle_pat_r/value	/jointset/tib_pat_r/knee_angle_pat_r/speed	/jointset/ankle_r/ankle_angle_r/value	/jointset/ankle_r/ankle_angle_r/speed	/jointset/free/ball_rx/value	/jointset/free/ball_rx/speed	/jointset/free/ball_ry/value	/jointset/free/ball_ry/speed	/jointset/free/ball_rz/value	/jointset/free/ball_rz/speed	/jointset/free/ball_tx/value	/jointset/free/ball_tx/speed	/jointset/free/ball_ty/value	/jointset/free/ball_ty/speed	/jointset/free/ball_tz/value	/jointset/free/ball_tz/speed	/forceset/bifemlh_r/activation	/forceset/bifemlh_r/fiber_length	/forceset/bifemsh_r/activation	/forceset/bifemsh_r/fiber_length	/forceset/glut_max2_r/activation	/forceset/glut_max2_r/fiber_length	/forceset/psoas_r/activation	/forceset/psoas_r/fiber_length	/forceset/rect_fem_r/activation	/forceset/rect_fem_r/fiber_length	/forceset/vas_int_r/activation	/forceset/vas_int_r/fiber_length	/forceset/med_gas_r/activation	/forceset/med_gas_r/fiber_length	/forceset/soleus_r/activation	/forceset/soleus_r/fiber_length	/forceset/tib_ant_r/activation	/forceset/tib_ant_r/fiber_length
      0.00000000	      0.00000000	      0.00000000	    -39.99999938	      0.00000000	   -109.99999500	      0.00000000	     -1.91986209	      0.00000000	    -10.00000371	      0.00000000	     -0.00000000	      0.00000000	     -0.00000000	      0.00000000	      0.00000057	      0.00000000	      0.70000000	      0.00000000	      0.12000000	      0.00000000	     -0.05000000	      0.00000000	      0.05000000	      0.02364349	      0.05000000	      0.14562080	      0.05000000	      0.04505574	      0.05000000	      0.13257404	      0.05000000	      0.21141927	      0.05000000	      0.15808583	      0.05000000	      0.05871820	      0.05000000	      0.08069560	      0.05000000	      0.09600512
      0.00100000	      0.00015553	      0.30929531	    -39.99894982	      2.09000362	   -109.99590628	      8.15453637	     -1.91979073	      0.14232351	    -10.04112351	    -81.71910324	      0.00000000	      0.00000661	     -0.00000000	     -0.00000000	      0.00000058	      0.00001321	      0.70000000	     -0.00000000	      0.11999510	     -0.00980481	     -0.05000000	      0.00000000	      0.04928705	      0.02364380	      0.04928705	      0.14562130	      0.04928705	      0.04505616	      0.04928705	      0.13257428	      0.04928705	      0.21141939	      0.04928705	      0.15808602	      0.04928705	      0.05871811	      0.04928705	      0.08069531	      0.04928705	      0.09600568
      0.00200000	      0.00061175	      0.59826365	    -39.99585456	      4.07544872	   -109.98377443	     16.04593188	     -1.91957899	      0.28005434	    -10.16143166	   -157.46325677	      0.00000004	      0.00010587	      0.00000000	      0.00000000	      0.00000066	      0.00021173	      0.70000000	     -0.00000000	      0.11998040	     -0.01958373	     -0.05000000	      0.00000000	      0.04858556	      0.02364481	      0.04858556	      0.14562287	      0.04858556	      0.04505753	      0.04858556	      0.13257489	      0.04858556	      0.21141879	      0.04858556	      0.15808619	      0.04858556	      0.05871570	      0.04858556	      0.08069158	      0.04858556	      0.09600875
      0.00300000	      0.00133987	      0.85091946	    -39.99086156	      5.87439687	   -109.96397289	     23.46523803	     -1.91923339	      0.40954566	    -10.35246616	   -222.53454358	      0.00000032	      0.00053543	      0.00000000	      0.00000000	      0.00000121	      0.00107087	      0.70000000	     -0.00000002	      0.11995596	     -0.02927023	     -0.05000000	      0.00000001	      0.04789530	      0.02364657	      0.04789530	      0.14562563	      0.04789530	      0.04506003	      0.04789530	      0.13257577	      0.04789530	      0.21141618	      0.04789530	      0.15808547	      0.04789530	      0.05870768	      0.04789530	      0.08068002	      0.04789530	      0.09601748
      0.00400000	      0.00229815	      1.05752981	    -39.98418482	      7.43760045	   -109.93704627	     30.28098183	     -1.91876343	      0.52850283	    -10.60196349	   -274.07474065	      0.00000135	      0.00168543	      0.00000000	      0.00000000	      0.00000327	      0.00337085	      0.70000000	     -0.00000016	      0.11992192	     -0.03875396	     -0.05000000	      0.00000008	      0.04721606	      0.02364918	      0.04721606	      0.14562964	      0.04721606	      0.04506382	      0.04721606	      0.13257679	      0.04721606	      0.21141100	      0.04721606	      0.15808295	      0.04721606	      0.05869075	      0.04721606	      0.08065598	      0.04721606	      0.09603888
      0.00510218	      0.00356328	      1.22839502	    -39.97516999	      8.87104148	   -109.89987530	     37.03820577	     -1.91811467	      0.64643864	    -10.92772601	   -314.18562618	      0.00000454	      0.00441827	      0.00000000	      0.00000000	      0.00000965	      0.00883654	      0.70000000	     -0.00000111	      0.11987363	     -0.04878817	     -0.05000000	      0.00000056	      0.04647992	      0.02365311	      0.04647992	      0.14563559	      0.04647992	      0.04506961	      0.04647992	      0.13257797	      0.04647992	      0.21140216	      0.04647992	      0.15807755	      0.04647992	      0.05865767	      0.04647992	      0.08060895	      0.04647992	      0.09610466
      0.00578085	      0.00442444	      1.30629043	    -39.96889161	      9.61537738	   -109.87343727	     40.83117589	     -1.91765324	      0.71263846	    -11.14692500	   -330.87607569	      0.00000843	      0.00721153	      0.00000000	      0.00000000	      0.00001743	      0.01442305	      0.70000000	     -0.00000291	      0.11983852	     -0.05464205	     -0.05000000	      0.00000146	      0.04603306	      0.02365613	      0.04603306	      0.14564007	      0.04603306	      0.04507407	      0.04603306	      0.13257868	      0.04603306	      0.21139513	      0.04603306	      0.15807268	      0.04603306	      0.05862784	      0.04603306	      0.08056629	      0.04603306	      0.09620430
      0.00645952	      0.00533258	      1.36751602	    -39.96213774	     10.27559493	   -109.84450514	     44.39665226	     -1.91714828	      0.77486776	    -11.37573246	   -342.69554202	      0.00001458	      0.01110036	      0.00000000	      0.00000000	      0.00002972	      0.02220071	      0.69999999	     -0.00000672	      0.11979954	     -0.06016586	     -0.05000000	      0.00000336	      0.04559101	      0.02365963	      0.04559101	      0.14564516	      0.04559101	      0.04507923	      0.04559101	      0.13257935	      0.04559101	      0.21138695	      0.04559101	      0.15806659	      0.04559101	      0.05858947	      0.04559101	      0.08051119	      0.04559101	      0.09635591
